<?xml version="1.0" encoding="utf-8"?>
<!-- Generator: Adobe Illustrator 17.1.0, SVG Export Plug-In . SVG Version: 6.00 Build 0)  -->
<!DOCTYPE svg PUBLIC "-//W3C//DTD SVG 1.1 Tiny//EN" "http://www.w3.org/Graphics/SVG/1.1/DTD/svg11-tiny.dtd">
<svg version="1.1" baseProfile="tiny" id="圖層_1"
	 xmlns="http://www.w3.org/2000/svg" xmlns:xlink="http://www.w3.org/1999/xlink" x="0px" y="0px" viewBox="0 0 120 40"
	 xml:space="preserve">
<g>
	<path fill="#FFFFFF" d="M21.6,16.3c-0.8,2.3-2.1,4.3-3.2,5.3l0,0c0.8-0.3,2.3-1,3.6-2.7v3.5c0,0.3,0.1,0.4,0.4,0.3l1.2-0.1
		c0.3,0,0.3-0.1,0.3-0.4v-5c0.2,0.2,0.6,0.8,0.8,2c0.1,0.6,0.2,0.8,0.6,0.8c0.5,0,1.1-0.5,1.1-1.1c0-1.3-1.9-1.8-2.5-2v-0.7h3
		c0.1,0,0.2,0,0.2-0.1c0-0.2-1.2-1.4-1.4-1.4c0,0-0.1,0.1-0.2,0.2l-0.8,1.1H24v-1.6c0.3-0.1,0.4-0.2,0.4-0.2c0-0.1-0.1-0.1-0.2-0.1
		c-0.1,0-1.8-0.2-2.2-0.2v2.2h-3.2l0.1,0.2H21.6z"/>
	<path fill="#FFFFFF" d="M23.2,13.5h-1.5c0.7-0.2,1-0.7,1-1.2c0-1.4-2.3-2.2-2.5-2.3H24C23.8,11.7,23.5,12.4,23.2,13.5 M34,9.3
		c0-0.1-1.6-1.6-1.9-1.8c-1,0.9-2.5,1.7-2.9,1.9c-0.3,0-1.6-0.3-1.9-0.4v4.5c0-0.2-1.3-1.5-1.4-1.5c-0.1,0-0.2,0.1-0.2,0.2l-0.7,1.2
		h-1.5c0.7-0.6,1.9-1.8,2.4-2.5c0.1,0,0.4,0,0.4-0.1c0-0.2-1.7-0.8-2-0.9h2.7c0.1,0,0.2,0,0.2-0.1c0-0.1-1.1-1.4-1.3-1.4
		c0,0-0.1,0-0.2,0.2l-0.8,1.1H24V8.2c0.2-0.1,0.4-0.2,0.4-0.3c0-0.1-0.1-0.1-0.2-0.1c-0.6-0.1-1.7-0.2-2.2-0.2v2.4h-3l0.1,0.2h0.9
		c0.6,1,0.8,2.4,0.9,2.8c0.1,0.5,0.1,0.6,0.2,0.6h-2.6l0.1,0.2h8.5c0.1,0,0.2,0,0.2-0.1v1.6c0,2-0.2,5.4-2.8,7.3l0,0
		c4.5-1.4,4.7-5.8,4.7-8.1v-0.7h1v8.7c0,0.4,0,0.4,0.4,0.4l1.3-0.1c0.4,0,0.4-0.1,0.4-0.4v-8.6h1.4c0.1,0,0.2,0,0.2-0.1
		c0-0.1-1.7-1.6-1.8-1.6c-0.1,0-0.1,0.1-0.2,0.2L31,13.5h-1.6V9.8c1.8-0.1,3.6-0.3,4.3-0.4c0.1,0,0.2,0,0.3,0C34,9.4,34,9.4,34,9.3"
		/>
	<path fill="#FFFFFF" d="M47.9,12.4h-2.2v-1.7h2.2V12.4z M47.9,10.5h-2.2V8.8h2.2V10.5z M44.1,18.8l-1.9,0.1v-1.5h1.9V18.8z
		 M44.1,17.2h-1.9v-1.4h1.9V17.2z M44.1,15.6h-1.9v-1.3h1.9V15.6z M50.6,9.3c0-0.3-1.7-1.5-2-1.5c-0.1,0-0.3,0.2-0.4,0.3l-0.4,0.6
		h-2.1c-1.6-0.4-1.7-0.4-2-0.5v4.7c0,0.3,0,0.4,0.3,0.4l1.3-0.1c0.3,0,0.3-0.1,0.3-0.3v-0.3h2.2v7.3c0,0.3,0,0.5-0.4,0.5
		c-0.1,0-0.7,0-1.5-0.1v-6h1.5c0.1,0,0.1,0,0.1-0.1c0-0.1-1.4-1.2-1.4-1.2c0,0-0.1,0.1-0.2,0.2l-0.7,0.9H39l0.1,0.2h1.3V19l-1.4,0.1
		c0.1,0.3,0.5,1.9,0.6,2.2c1.9-0.7,3.6-1.5,4.6-2.1v2.6c0,0.4,0,0.4,0.4,0.4l1.2-0.1c0.3,0,0.3-0.1,0.3-0.5v-1.2
		c1.1,0.4,1.2,0.9,1.3,1.7c0,0.6,0,0.7,0.6,0.7c2,0,2-1,2-1.6V9.7C50.4,9.5,50.6,9.4,50.6,9.3"/>
	<path fill="#FFFFFF" d="M40.7,12.4h-2.1v-1.7h2.1V12.4z M40.7,10.5h-2.1V8.8h2.1V10.5z M43.2,9.3c0-0.3-1.9-1.5-2.1-1.5
		c-0.1,0-0.2,0.1-0.3,0.3l-0.4,0.6h-1.9c-0.7-0.2-1.7-0.4-2.1-0.5v14.2c0,0.4,0,0.4,0.3,0.4l1.5-0.1c0.3,0,0.3-0.1,0.3-0.4v-9.7h2.1
		V13c0,0.3,0,0.4,0.3,0.3l1.3-0.1c0.3,0,0.3-0.2,0.3-0.5V9.7C42.9,9.6,43.2,9.5,43.2,9.3"/>
	<path fill="#FFFFFF" d="M57.2,15.2c0-2.2,0.2-3.9,0.7-5c0.5-1.1,1.3-1.6,2.5-1.6c0.8,0,1.5,0.6,1.8,1.7c0.4,1.1,0.6,2.7,0.6,4.9
		H57.2z M57.2,15.4h8.5c0-2.8-0.7-4.6-2.1-5.8c-0.9-0.8-2.1-1.3-3.6-1.3c-1.5,0-2.9,0.6-4.2,1.9c-1.4,1.4-2.1,3.3-2.1,5.6
		c0,2.1,0.7,3.9,2.1,5.2c1.2,1.1,2.5,1.7,4,1.7c1.8,0,3.2-0.5,4.2-1.6c1.1-1.1,1.6-2.4,1.6-4.1h-0.3c0,1.7-0.6,3-1.7,4
		c-0.9,0.8-2,1.2-3.2,1.2c-1.1,0-2-0.5-2.6-1.6C57.5,19.6,57.2,17.7,57.2,15.4"/>
	<path fill="#FFFFFF" d="M80.9,20.1c0,0.3,0,0.5-0.2,0.5c-0.1,0-0.3,0-0.4,0v-2.7h0.6V20.1z M80.9,17.7h-0.6V15h0.6V17.7z
		 M78.9,17.7h-0.6V15h0.6V17.7z M76.7,17.7h-0.5V15h0.5V17.7z M83.3,15.4c0-0.2-1.7-1.4-1.8-1.4c-0.1,0-0.1,0.1-0.2,0.2l-0.4,0.6
		h-4.7c-0.3-0.1-1.3-0.3-1.7-0.4v8c0,0.4,0.1,0.4,0.4,0.4l0.9-0.1c0.3,0,0.4-0.1,0.4-0.3v-4.5h0.5v4.3c0,0.3,0.2,0.3,0.4,0.3
		l0.8-0.1c0.3,0,0.3-0.1,0.3-0.4v-4.1h0.6v4.3c0,0.3,0,0.3,0.3,0.3l0.9-0.1c0.2,0,0.2-0.2,0.2-0.4v-1c0.3,0.3,0.4,0.3,0.5,1.2
		c0,0.5,0,0.7,0.4,0.7c1.3,0,1.3-0.8,1.3-1.2v-5.7C82.8,15.7,83.3,15.6,83.3,15.4"/>
	<path fill="#FFFFFF" d="M71.9,21h-1.1v-3.6h1.1V21z M74.3,17.8c0-0.3-1.7-1.6-1.8-1.6c-0.1,0-0.2,0.1-0.3,0.3l-0.5,0.7h-0.8
		c-0.7-0.1-1.4-0.3-2-0.4v5.5c0,0.3,0,0.4,0.4,0.3l1.1-0.1c0.3,0,0.3-0.2,0.3-0.4v-0.9h1.1v1c0,0.3,0.1,0.3,0.4,0.3l1.1-0.1
		c0.3,0,0.3,0,0.3-0.4v-3.8C74.1,18,74.3,17.9,74.3,17.8"/>
	<path fill="#FFFFFF" d="M75.5,12.9c1.3-1.1,2.5-2.6,3.4-4.2c0.7,4.3,3.7,5.4,4,5.4s0.4-0.3,0.4-0.4c0-0.7,0-1.1,1-1.7v0
		c-3-0.6-4.7-2.3-5.2-3.4c0.3,0,0.5,0,0.5-0.1c0-0.2-1.9-0.7-2.6-0.9c-0.2,0.5-0.6,1.9-1.6,3.6c-1.1,2-1.7,2.6-2.2,3.1
		c-0.1-0.1-0.7-0.5-0.7-0.5c-0.1,0-0.1,0.1-0.2,0.2L71.4,15h-2.6l0.1,0.2h5c0.1,0,0.2,0,0.2-0.1c0-0.1-0.7-0.7-0.9-0.8
		C73.7,14,74.5,13.7,75.5,12.9l0,0.2h5c0.1,0,0.2,0,0.2-0.1c0-0.1-1.4-1.3-1.5-1.3c-0.1,0-0.1,0.1-0.2,0.2l-0.8,1.1H75.5z"/>
	<path fill="#FFFFFF" d="M68.9,8.8L69,9h5.4c0.1,0,0.2,0,0.2-0.1c0-0.2-1.5-1.4-1.6-1.4c-0.1,0-0.1,0.1-0.2,0.2l-0.8,1.1H68.9z"/>
	<path fill="#FFFFFF" d="M68.2,10.8l0.1,0.2h6.5c0.1,0,0.2,0,0.2-0.1c0-0.1-1.4-1.4-1.5-1.4c-0.1,0-0.1,0.1-0.2,0.2l-0.9,1.1H68.2z"
		/>
	<path fill="#FFFFFF" d="M68.8,12.9l0.1,0.2h4.9c0.1,0,0.2,0,0.2-0.1c0-0.1-1.4-1.3-1.5-1.3c-0.1,0-0.2,0.1-0.2,0.2l-0.7,1H68.8z"/>
	<path fill="#FFFFFF" d="M97.3,21.1h-3.4v-1.8h3.4V21.1z M97.3,19.1h-3.4v-1.7h3.4V19.1z M99.9,17.9L99.9,17.9
		c-0.1-0.2-1.8-1.5-1.9-1.5c-0.1,0-0.1,0-0.3,0.3l-0.5,0.7H94c-1.6-0.3-1.8-0.4-2.2-0.4v4.8c0,0.3,0.1,0.4,0.4,0.3l1.3-0.1
		c0.3,0,0.3-0.1,0.3-0.6h3.4c0,0.4,0,0.5,0.4,0.5l1.3-0.1c0.4,0,0.4-0.2,0.4-0.4v-3C99.5,18.2,99.9,18,99.9,17.9"/>
	<path fill="#FFFFFF" d="M95.9,14.1H95v-1.7h0.9V14.1z M98.1,12.7c0-0.1-1.4-1.2-1.5-1.2c-0.1,0-0.2,0.2-0.3,0.2l-0.5,0.5h-0.6
		c-0.5-0.1-1.1-0.2-1.7-0.4v2.6c0,0.3,0.1,0.3,0.3,0.3l1-0.1c0.2,0,0.3-0.1,0.3-0.3h0.9c0,0.4,0,0.5,0.4,0.4l1-0.1
		c0.3,0,0.3-0.2,0.3-0.4v-1.4C97.8,12.9,98.1,12.8,98.1,12.7"/>
	<path fill="#FFFFFF" d="M98.1,15.5H93v-4.4h5.2V15.5z M100.6,11.4c0-0.2-1.6-1.3-1.8-1.3c-0.1,0-0.1,0-0.3,0.3L98,10.9h-4.9
		c-1.3-0.2-1.4-0.2-2-0.3v1.7c-0.5-0.6-1-1.1-1.1-1.1c-0.1,0-0.2,0.2-0.3,0.3l-0.6,0.8v-4c0.5-0.1,0.5-0.2,0.5-0.2
		c0-0.1-0.1-0.1-0.2-0.1c-0.1,0-1.1-0.1-2.4-0.2v4.7H85l0.1,0.2h2.1v5.6L85,18.5c0.1,0.4,0.7,2.2,0.8,2.4c1.7-0.8,4.2-2.3,5.8-3.6v0
		l-2.4,0.5v-5.2h1.9v3.4c0,0.3,0,0.4,0.3,0.4l1.2-0.1c0.3,0,0.3-0.1,0.3-0.5h5.2c0,0.4,0,0.5,0.3,0.5l1.2-0.1c0.3,0,0.3-0.1,0.3-0.3
		v-4C100.4,11.7,100.6,11.5,100.6,11.4"/>
	<path fill="#FFFFFF" d="M96.5,9.5V8.1C96.6,8,97,8,97,7.8c0-0.1-0.1-0.1-0.4-0.2c-0.5,0-1.6-0.1-2.2-0.2v1.9h-4.6l0.1,0.2h10.9
		c0.1,0,0.2,0,0.2-0.1c0-0.2-1.6-1.5-1.8-1.5c-0.1,0-0.2,0.1-0.2,0.2L98,9.5H96.5z"/>
	<path fill="#FFFFFF" d="M88.7,22.5l0.1,0.2h12.2c0.1,0,0.2,0,0.2-0.1c0-0.2-1.2-1.5-1.4-1.5c-0.1,0-0.1,0.1-0.2,0.2l-0.7,1.2H88.7z
		"/>
	<path fill="#FFFFFF" d="M93.1,28.3c-0.2-0.1-0.3-0.1-0.6-0.1c-0.3,0-0.5,0.1-0.7,0.3c-0.2,0.2-0.3,0.4-0.3,0.7
		c0,0.3,0.1,0.6,0.3,0.7c0.2,0.2,0.5,0.3,0.8,0.3c0.3,0.1,0.6,0.1,0.7,0.2c0.2,0.1,0.3,0.3,0.3,0.5c0,0.2-0.1,0.3-0.2,0.4
		c-0.1,0.1-0.3,0.1-0.4,0.1c-0.2,0-0.4,0-0.5,0c-0.1,0-0.2-0.1-0.4-0.2c-0.1-0.1-0.2-0.2-0.3-0.4c-0.1-0.1-0.1-0.4-0.2-0.7h-0.1v1.4
		c0,0,0.1-0.1,0.3-0.4c0.2,0.2,0.3,0.3,0.5,0.3c0.1,0,0.3,0,0.5,0c0.3,0,0.5-0.1,0.7-0.2c0.2-0.2,0.4-0.4,0.4-0.8
		c0-0.4-0.1-0.6-0.3-0.8c-0.2-0.1-0.4-0.2-0.8-0.3c-0.4-0.1-0.7-0.2-0.8-0.2c-0.2-0.1-0.3-0.3-0.3-0.4c0-0.2,0.1-0.4,0.3-0.5
		c0.1-0.1,0.3-0.1,0.5-0.1c0.3,0,0.5,0.1,0.7,0.3c0.2,0.2,0.3,0.5,0.4,0.8l0.1,0v-1.2c0,0-0.1,0.1-0.3,0.2
		C93.4,28.4,93.3,28.3,93.1,28.3 M88.8,31.2c0,0.1,0,0.2,0,0.2c-0.1,0-0.2,0.1-0.3,0.1c-0.1,0-0.3,0-0.4,0v0.1h2.4v-0.1
		c-0.4,0-0.6,0-0.7-0.1c0,0-0.1,0-0.1,0c0,0,0-0.1,0-0.2v-1.5c0-0.5,0.1-0.8,0.3-1.1c0.2-0.2,0.3-0.3,0.5-0.3c0.2,0,0.3,0.1,0.3,0.2
		c-0.1,0-0.2,0-0.3,0.1c-0.1,0.1-0.1,0.2-0.1,0.3c0,0.1,0,0.3,0.1,0.3c0.1,0.1,0.2,0.1,0.3,0.1c0.1,0,0.1,0,0.2,0
		c0.2-0.1,0.3-0.2,0.3-0.4c0-0.1,0-0.2-0.1-0.3c0-0.1-0.1-0.2-0.2-0.3c-0.1-0.1-0.2-0.1-0.3-0.1c-0.3,0-0.5,0.1-0.7,0.4
		c-0.1,0.2-0.2,0.4-0.2,0.6v-1L88,28.3v0.1c0.4,0,0.6,0,0.7,0c0,0,0.1,0,0.1,0.1c0,0,0,0.1,0,0.2V31.2z M86.2,29.6
		c-0.1,0.1-0.3,0.1-0.7,0.1c-0.3,0-0.6,0.1-0.8,0.3c-0.2,0.2-0.3,0.4-0.3,0.7c0,0.3,0.1,0.5,0.4,0.7c0.2,0.1,0.4,0.2,0.6,0.2
		c0.2,0,0.4,0,0.6-0.1c0.2-0.1,0.4-0.3,0.5-0.5c0,0.2,0.1,0.4,0.3,0.5c0.1,0.1,0.3,0.1,0.5,0.1c0.3,0,0.5-0.1,0.6-0.2
		c0.1-0.1,0.1-0.3,0.1-0.6c0-0.1,0-0.2,0-0.3v-0.4h-0.1v0.1c0,0.1,0,0.2,0,0.2c0,0.1,0,0.1,0,0.2c0,0.3,0,0.5-0.1,0.6
		c0,0.1-0.1,0.2-0.3,0.2c-0.2,0-0.3-0.1-0.3-0.3c0-0.1,0-0.3,0-0.6v-1.8c0-0.2-0.1-0.4-0.3-0.5c-0.2-0.1-0.5-0.2-0.9-0.2
		c-0.2,0-0.4,0-0.7,0.1c-0.3,0.1-0.5,0.2-0.6,0.5c0,0.1,0,0.2,0,0.3c0,0.2,0.1,0.3,0.2,0.4c0.1,0,0.1,0.1,0.2,0.1
		c0.1,0,0.2,0,0.3-0.1c0.1-0.1,0.1-0.2,0.1-0.3c0-0.1,0-0.2-0.1-0.3c-0.1-0.1-0.2-0.1-0.3-0.1c0,0-0.1,0-0.1,0
		c0-0.1,0.1-0.2,0.3-0.3c0.1-0.1,0.3-0.1,0.5-0.1c0.2,0,0.4,0,0.5,0.1c0.1,0.1,0.1,0.2,0.1,0.4v0.5C86.3,29.4,86.3,29.6,86.2,29.6
		 M86.1,31.3c-0.2,0.2-0.4,0.3-0.6,0.3c-0.1,0-0.2-0.1-0.3-0.2c-0.1-0.1-0.1-0.3-0.1-0.6c0-0.3,0.1-0.5,0.2-0.7
		c0.1-0.1,0.2-0.2,0.4-0.3c0.1,0,0.2,0,0.4-0.1c0.1,0,0.2-0.1,0.3-0.2v1.1C86.3,30.9,86.2,31.1,86.1,31.3 M81.8,29.8
		c0-0.5,0.1-0.9,0.2-1.2c0.1-0.3,0.3-0.4,0.6-0.4c0.2,0,0.4,0.1,0.5,0.4c0.1,0.3,0.1,0.7,0.1,1.2H81.8z M83.9,29.9
		c0-0.7-0.2-1.2-0.5-1.5c-0.2-0.2-0.5-0.3-0.9-0.3c-0.4,0-0.7,0.2-1,0.5C81.1,29,81,29.4,81,30c0,0.5,0.2,0.9,0.5,1.3
		c0.3,0.3,0.6,0.4,1,0.4c0.4,0,0.8-0.1,1.1-0.4c0.3-0.3,0.4-0.6,0.4-1h-0.1c0,0.4-0.1,0.7-0.4,1c-0.2,0.2-0.5,0.3-0.8,0.3
		c-0.3,0-0.5-0.1-0.6-0.4c-0.1-0.3-0.2-0.7-0.2-1.2H83.9z M76.5,31.2c0,0.1,0,0.2,0,0.2c-0.1,0-0.2,0.1-0.3,0.1c-0.1,0-0.3,0-0.4,0
		v0.1h2.4v-0.1c-0.4,0-0.6,0-0.7-0.1c0,0-0.1,0-0.1,0c0,0,0-0.1,0-0.2v-1.5c0-0.5,0.1-0.8,0.3-1.1c0.2-0.2,0.3-0.3,0.5-0.3
		c0.2,0,0.3,0.1,0.3,0.2c-0.1,0-0.2,0-0.3,0.1C78,28.6,78,28.7,78,28.8c0,0.1,0,0.3,0.1,0.3c0.1,0.1,0.2,0.1,0.3,0.1
		c0.1,0,0.1,0,0.2,0c0.2-0.1,0.3-0.2,0.3-0.4c0-0.1,0-0.2-0.1-0.3c0-0.1-0.1-0.2-0.2-0.3c-0.1-0.1-0.2-0.1-0.3-0.1
		c-0.3,0-0.5,0.1-0.7,0.4c-0.1,0.2-0.2,0.4-0.2,0.6v-1l-1.6,0.1v0.1c0.4,0,0.6,0,0.7,0c0,0,0.1,0,0.1,0.1c0,0,0,0.1,0,0.2V31.2z
		 M74,30.1c0,0.3-0.1,0.7-0.3,0.9c-0.2,0.3-0.4,0.4-0.6,0.4c-0.1,0-0.2,0-0.3-0.1c-0.1-0.1-0.1-0.3-0.1-0.6v-2.6l-1.5,0.1v0.1h0.2
		c0.2,0,0.3,0,0.4,0c0,0,0.1,0,0.1,0.1c0,0,0,0.1,0,0.2v2.1c0,0.2,0.1,0.4,0.2,0.6c0.2,0.2,0.4,0.3,0.8,0.3H73c0,0,0.1,0,0.1,0
		c0.2,0,0.5-0.2,0.6-0.4c0.1-0.2,0.2-0.4,0.2-0.6v1l1.5-0.1v-0.1c-0.4,0-0.6,0-0.6-0.1l0-0.1c0,0,0-0.1,0-0.2c0-0.1,0-0.1,0-0.2
		v-2.7l-1.6,0.1v0.1c0.4,0,0.6,0,0.7,0c0.1,0,0.1,0,0.1,0.1c0,0,0,0.1,0,0.2V30.1z M70.2,31.2c-0.1,0.3-0.3,0.4-0.6,0.4
		c-0.3,0-0.5-0.1-0.7-0.4c-0.1-0.3-0.2-0.7-0.2-1.3c0-0.6,0.1-1,0.2-1.3c0.1-0.3,0.3-0.4,0.6-0.4c0.3,0,0.5,0.1,0.7,0.4
		c0.1,0.2,0.2,0.7,0.2,1.2C70.4,30.5,70.4,30.9,70.2,31.2 M70.7,28.6c-0.3-0.3-0.7-0.4-1.1-0.4c-0.4,0-0.8,0.2-1.1,0.5
		c-0.4,0.3-0.6,0.8-0.6,1.3c0,0.5,0.2,1,0.6,1.3c0.3,0.3,0.7,0.4,1.1,0.4c0.4,0,0.8-0.2,1.1-0.5c0.4-0.3,0.6-0.8,0.6-1.3
		C71.3,29.3,71.1,28.9,70.7,28.6 M64.9,31c0,0.2,0,0.3,0,0.3c0,0,0,0-0.1,0.1c-0.1,0-0.2,0-0.4,0.1c-0.2,0-0.4,0-0.7,0v0.1h3.6v-0.1
		c-0.3,0-0.6,0-0.7,0c-0.2,0-0.3,0-0.4-0.1c-0.1,0-0.1,0-0.1-0.1c0,0,0-0.1,0-0.3v-1.8l0.9-1.5c0.1-0.2,0.3-0.5,0.6-0.9
		c0.2-0.3,0.5-0.4,0.9-0.4v-0.1h-2.2v0.1c0.6,0,0.9,0.2,0.9,0.6c0,0.2-0.1,0.3-0.2,0.6l-0.9,1.5L64.6,27c0-0.1-0.1-0.1-0.1-0.2
		c0-0.1,0.1-0.2,0.2-0.2c0.2,0,0.4-0.1,0.7-0.1v-0.1h-3.3v0.1c0.4,0,0.7,0,0.8,0.1c0.1,0.1,0.2,0.2,0.4,0.4l1.5,2.5V31z M58.3,33
		c0.4-0.2,0.7-0.4,0.9-0.7c0.2-0.2,0.2-0.5,0.2-0.9c0-0.2,0-0.4-0.1-0.5c-0.1-0.1-0.2-0.2-0.4-0.2c-0.2,0-0.3,0-0.4,0.1
		c-0.1,0.1-0.1,0.2-0.1,0.4c0,0.1,0,0.2,0.1,0.3c0.1,0.1,0.2,0.1,0.3,0.1c0,0,0.1,0,0.1,0c0,0,0.1,0,0.1-0.1c0,0.2,0,0.4-0.2,0.7
		c-0.1,0.3-0.4,0.5-0.7,0.6L58.3,33z M56.3,28.3c-0.2-0.1-0.3-0.1-0.6-0.1c-0.3,0-0.5,0.1-0.7,0.3c-0.2,0.2-0.3,0.4-0.3,0.7
		c0,0.3,0.1,0.6,0.3,0.7c0.2,0.2,0.5,0.3,0.8,0.3c0.4,0.1,0.6,0.1,0.7,0.2c0.2,0.1,0.3,0.3,0.3,0.5c0,0.2-0.1,0.3-0.2,0.4
		c-0.1,0.1-0.3,0.1-0.4,0.1c-0.2,0-0.4,0-0.5,0c-0.1,0-0.2-0.1-0.4-0.2c-0.1-0.1-0.2-0.2-0.3-0.4c-0.1-0.1-0.1-0.4-0.2-0.7h-0.1v1.4
		c0,0,0.1-0.1,0.3-0.4c0.2,0.2,0.3,0.3,0.5,0.3c0.1,0,0.3,0,0.5,0c0.3,0,0.5-0.1,0.7-0.2c0.2-0.2,0.4-0.4,0.4-0.8
		c0-0.4-0.1-0.6-0.3-0.8c-0.2-0.1-0.4-0.2-0.8-0.3c-0.4-0.1-0.7-0.2-0.8-0.2C55.1,29.2,55,29,55,28.8c0-0.2,0.1-0.4,0.3-0.5
		c0.1-0.1,0.3-0.1,0.5-0.1c0.3,0,0.5,0.1,0.7,0.3c0.2,0.2,0.3,0.5,0.4,0.8l0.1,0v-1.2c0,0-0.1,0.1-0.3,0.2
		C56.6,28.4,56.5,28.3,56.3,28.3 M52,29.8c0-0.5,0.1-0.9,0.2-1.2c0.1-0.3,0.3-0.4,0.6-0.4c0.2,0,0.4,0.1,0.5,0.4
		c0.1,0.3,0.1,0.7,0.1,1.2H52z M54.1,29.9c0-0.7-0.2-1.2-0.5-1.5c-0.2-0.2-0.5-0.3-0.9-0.3c-0.4,0-0.7,0.2-1,0.5
		c-0.4,0.4-0.5,0.8-0.5,1.4c0,0.5,0.2,0.9,0.5,1.3c0.3,0.3,0.6,0.4,1,0.4c0.4,0,0.8-0.1,1.1-0.4c0.3-0.3,0.4-0.6,0.4-1h-0.1
		c0,0.4-0.1,0.7-0.4,1c-0.2,0.2-0.5,0.3-0.8,0.3c-0.3,0-0.5-0.1-0.6-0.4c-0.1-0.3-0.2-0.7-0.2-1.2H54.1z M50.2,29.1
		c0.1-0.4,0.3-0.6,0.4-0.7c0.1-0.1,0.3-0.1,0.5-0.1v-0.1h-1.4v0.1c0.4,0,0.6,0.1,0.6,0.3c0,0.1,0,0.2-0.1,0.4l-0.6,1.6l-0.8-2.1
		l0-0.2c0-0.1,0.1-0.1,0.2-0.1c0.1,0,0.3,0,0.4,0v-0.1h-1.9v0.1h0.2c0.2,0,0.3,0,0.3,0.1c0,0,0,0.1,0.1,0.2l1.2,3.1l-0.3,0.7
		c-0.1,0.3-0.2,0.5-0.3,0.6c-0.1,0.1-0.2,0.2-0.4,0.2c0,0-0.1,0-0.1,0c0,0-0.1,0-0.1-0.1c0.2,0,0.3-0.2,0.3-0.4c0-0.1,0-0.2-0.1-0.3
		c-0.1-0.1-0.2-0.1-0.3-0.1c-0.1,0-0.1,0-0.2,0c-0.2,0.1-0.2,0.2-0.2,0.4c0,0.1,0,0.2,0,0.3c0,0.1,0.1,0.2,0.2,0.2
		c0.1,0,0.3,0.1,0.5,0.1c0.2,0,0.3-0.1,0.4-0.2c0.1-0.1,0.2-0.4,0.3-0.7L50.2,29.1z M45,29.8c0-0.5,0.1-0.9,0.2-1.2
		c0.1-0.3,0.3-0.4,0.6-0.4c0.2,0,0.4,0.1,0.5,0.4c0.1,0.3,0.1,0.7,0.1,1.2H45z M47.2,29.9c0-0.7-0.2-1.2-0.5-1.5
		c-0.2-0.2-0.5-0.3-0.9-0.3c-0.4,0-0.7,0.2-1,0.5c-0.4,0.4-0.5,0.8-0.5,1.4c0,0.5,0.2,0.9,0.5,1.3c0.3,0.3,0.6,0.4,1,0.4
		c0.4,0,0.8-0.1,1.1-0.4c0.3-0.3,0.4-0.6,0.4-1h-0.1c0,0.4-0.1,0.7-0.4,1c-0.2,0.2-0.5,0.3-0.8,0.3c-0.3,0-0.5-0.1-0.6-0.4
		c-0.1-0.3-0.2-0.7-0.2-1.2H47.2z M39.7,31.2c0,0.1,0,0.2,0,0.2c-0.1,0-0.2,0.1-0.3,0.1c-0.1,0-0.3,0-0.4,0v0.1h2.4v-0.1
		c-0.4,0-0.6,0-0.7-0.1c0,0-0.1,0-0.1,0c0,0,0-0.1,0-0.2v-1.5c0-0.5,0.1-0.8,0.3-1.1c0.2-0.2,0.3-0.3,0.5-0.3c0.2,0,0.3,0.1,0.3,0.2
		c-0.1,0-0.2,0-0.3,0.1c-0.1,0.1-0.1,0.2-0.1,0.3c0,0.1,0,0.3,0.1,0.3c0.1,0.1,0.2,0.1,0.3,0.1c0.1,0,0.1,0,0.2,0
		c0.2-0.1,0.3-0.2,0.3-0.4c0-0.1,0-0.2-0.1-0.3c0-0.1-0.1-0.2-0.2-0.3c-0.1-0.1-0.2-0.1-0.3-0.1c-0.3,0-0.5,0.1-0.7,0.4
		c-0.1,0.2-0.2,0.4-0.2,0.6v-1l-1.6,0.1v0.1c0.4,0,0.6,0,0.7,0c0,0,0.1,0,0.1,0.1c0,0,0,0.1,0,0.2V31.2z M37.2,30.1
		c0,0.3-0.1,0.7-0.3,0.9c-0.2,0.3-0.4,0.4-0.6,0.4c-0.1,0-0.2,0-0.3-0.1c-0.1-0.1-0.1-0.3-0.1-0.6v-2.6l-1.5,0.1v0.1h0.2
		c0.2,0,0.3,0,0.4,0c0,0,0.1,0,0.1,0.1c0,0,0,0.1,0,0.2v2.1c0,0.2,0.1,0.4,0.2,0.6c0.2,0.2,0.4,0.3,0.8,0.3h0.1c0,0,0.1,0,0.1,0
		c0.2,0,0.5-0.2,0.6-0.4c0.1-0.2,0.2-0.4,0.2-0.6v1l1.5-0.1v-0.1c-0.4,0-0.6,0-0.6-0.1l0-0.1c0,0,0-0.1,0-0.2c0-0.1,0-0.1,0-0.2
		v-2.7l-1.6,0.1v0.1c0.4,0,0.6,0,0.7,0c0.1,0,0.1,0,0.1,0.1c0,0,0,0.1,0,0.2V30.1z M33.5,31.2c-0.1,0.3-0.3,0.4-0.6,0.4
		c-0.3,0-0.5-0.1-0.7-0.4c-0.1-0.3-0.2-0.7-0.2-1.3c0-0.6,0.1-1,0.2-1.3c0.1-0.3,0.3-0.4,0.6-0.4c0.3,0,0.5,0.1,0.7,0.4
		c0.1,0.2,0.2,0.7,0.2,1.2C33.7,30.5,33.6,30.9,33.5,31.2 M34,28.6c-0.3-0.3-0.7-0.4-1.1-0.4c-0.4,0-0.8,0.2-1.1,0.5
		c-0.4,0.3-0.6,0.8-0.6,1.3c0,0.5,0.2,1,0.6,1.3c0.3,0.3,0.7,0.4,1.1,0.4c0.4,0,0.8-0.2,1.1-0.5c0.4-0.3,0.6-0.8,0.6-1.3
		C34.5,29.3,34.3,28.9,34,28.6 M28.1,31c0,0.2,0,0.3,0,0.3c0,0,0,0-0.1,0.1c-0.1,0-0.2,0-0.4,0.1c-0.2,0-0.4,0-0.7,0v0.1h3.6v-0.1
		c-0.3,0-0.6,0-0.7,0c-0.2,0-0.3,0-0.4-0.1c-0.1,0-0.1,0-0.1-0.1c0,0,0-0.1,0-0.3v-1.8l0.9-1.5c0.1-0.2,0.3-0.5,0.6-0.9
		c0.2-0.3,0.5-0.4,0.9-0.4v-0.1h-2.2v0.1c0.6,0,0.9,0.2,0.9,0.6c0,0.2-0.1,0.3-0.2,0.6l-0.9,1.5L27.8,27c0-0.1-0.1-0.1-0.1-0.2
		c0-0.1,0.1-0.2,0.2-0.2c0.2,0,0.4-0.1,0.7-0.1v-0.1h-3.3v0.1c0.4,0,0.7,0,0.8,0.1c0.1,0.1,0.2,0.2,0.4,0.4l1.5,2.5V31z"/>
</g>
</svg>
